<?xml version="1.0" encoding="iso-8859-1"?>
<!-- Uploaded to: SVG Repo, www.svgrepo.com, Generator: SVG Repo Mixer Tools -->
<svg version="1.1" id="Layer_1" xmlns="http://www.w3.org/2000/svg" xmlns:xlink="http://www.w3.org/1999/xlink" 
	 viewBox="0 0 512.007 512.007" xml:space="preserve">
<polygon style="fill:#CCF8F3;" points="255.989,395.367 289.648,369.855 304.558,90.656 255.989,54.229 207.42,90.656 
	222.329,369.855 "/>
<polygon style="fill:#00D7DF;" points="110.13,145.457 159.471,78.668 207.42,90.656 255.989,395.367 203.19,405.926 "/>
<rect x="42.714" y="98.474" transform="matrix(-0.9659 0.2588 -0.2588 -0.9659 286.807 506.9968)" style="fill:#EA348B;" width="134.635" height="347.807"/>
<g>
	
		<rect x="77.255" y="150.029" transform="matrix(0.9659 -0.2588 0.2588 0.9659 -39.3094 35.1163)" style="fill:#FFFFFF;" width="72.927" height="33.658"/>
	
		<rect x="129.523" y="345.114" transform="matrix(0.9659 -0.2588 0.2588 0.9659 -88.0185 55.2904)" style="fill:#FFFFFF;" width="72.927" height="33.659"/>
	
		<rect x="94.683" y="215.065" transform="matrix(0.9659 -0.2588 0.2588 0.9659 -55.5475 41.8427)" style="fill:#FFFFFF;" width="72.927" height="33.658"/>
	
		<rect x="112.107" y="280.079" transform="matrix(0.9659 -0.2588 0.2588 0.9659 -71.7801 48.5673)" style="fill:#FFFFFF;" width="72.927" height="33.658"/>
</g>
<polygon style="fill:#00D7DF;" points="401.847,145.457 352.508,78.668 304.558,90.656 255.989,395.367 308.787,405.926 "/>
<polygon style="fill:#B02768;" points="381.886,87.927 291.864,423.893 421.985,457.659 512.007,121.692 "/>
<rect x="411.232" y="158" transform="matrix(-0.9659 -0.2588 0.2588 -0.9659 796.2912 454.4881)" style="fill:#CCF8F3;" width="33.659" height="33.659"/>
<rect x="393.803" y="223.024" transform="matrix(-0.9659 -0.2588 0.2588 -0.9659 745.1972 577.8102)" style="fill:#FFFFFF;" width="33.659" height="33.659"/>
<rect x="376.382" y="288.06" transform="matrix(-0.9659 -0.2588 0.2588 -0.9659 694.1179 701.1567)" style="fill:#CCF8F3;" width="33.659" height="33.659"/>
<rect x="358.971" y="353.076" transform="matrix(-0.9659 -0.2588 0.2588 -0.9659 643.0619 824.4681)" style="fill:#FFFFFF;" width="33.659" height="33.659"/>
</svg>